<?xml version="1.0" encoding="UTF-8" standalone="no"?>
<svg
   xmlns:dc="http://purl.org/dc/elements/1.1/"
   xmlns:cc="http://creativecommons.org/ns#"
   xmlns:rdf="http://www.w3.org/1999/02/22-rdf-syntax-ns#"
   xmlns:svg="http://www.w3.org/2000/svg"
   xmlns="http://www.w3.org/2000/svg"
   xmlns:sodipodi="http://sodipodi.sourceforge.net/DTD/sodipodi-0.dtd"
   xmlns:inkscape="http://www.inkscape.org/namespaces/inkscape"
   version="1.1"
   id="Layer_1"
   x="0px"
   y="0px"
   viewBox="0 0 286.83316 118.85"
   xml:space="preserve"
   sodipodi:docname="logo.svg"
   width="286.83316"
   height="118.85"
   inkscape:version="1.0.2 (e86c870879, 2021-01-15)"><metadata
   id="metadata1068"><rdf:RDF><cc:Work
       rdf:about=""><dc:format>image/svg+xml</dc:format><dc:type
         rdf:resource="http://purl.org/dc/dcmitype/StillImage" /><dc:title /></cc:Work></rdf:RDF></metadata><defs
   id="defs1066" /><sodipodi:namedview
   pagecolor="#ffffff"
   bordercolor="#666666"
   borderopacity="1"
   objecttolerance="10"
   gridtolerance="10"
   guidetolerance="10"
   inkscape:pageopacity="0"
   inkscape:pageshadow="2"
   inkscape:window-width="3840"
   inkscape:window-height="2135"
   id="namedview1064"
   showgrid="false"
   inkscape:zoom="11.922493"
   inkscape:cx="215.30113"
   inkscape:cy="75.216508"
   inkscape:window-x="0"
   inkscape:window-y="0"
   inkscape:window-maximized="1"
   inkscape:current-layer="Layer_1"
   fit-margin-top="0"
   fit-margin-left="0"
   fit-margin-right="0"
   fit-margin-bottom="0"
   inkscape:document-rotation="0" />
<style
   type="text/css"
   id="style1053">
	.st0{fill:#040404;}
	.st1{font-family:'Arial-Black';}
	.st2{font-size:72px;}
	.st3{font-size:60px;}
</style>
<g
   id="IUotib.tif"
   transform="translate(-5.93,-10.95)">
</g>
<g
   id="g1057"
   transform="translate(-5.93,-10.95)">
	<path
   id="path3_1_"
   class="st0"
   d="m 122.15,68.91 -4.91,-3.09 c -0.04,-0.49 -0.09,-0.97 -0.14,-1.45 l 4.22,-4 c 0.43,-0.41 0.62,-1.01 0.51,-1.59 -0.11,-0.58 -0.52,-1.07 -1.07,-1.27 l -5.4,-2.05 c -0.14,-0.47 -0.28,-0.95 -0.42,-1.41 l 3.37,-4.75 c 0.34,-0.48 0.41,-1.11 0.19,-1.66 -0.22,-0.55 -0.71,-0.94 -1.29,-1.04 l -5.69,-0.94 c -0.22,-0.44 -0.45,-0.87 -0.68,-1.3 l 2.39,-5.33 c 0.24,-0.54 0.19,-1.17 -0.13,-1.67 -0.33,-0.49 -0.88,-0.78 -1.46,-0.76 l -5.78,0.2 c -0.3,-0.38 -0.6,-0.75 -0.91,-1.12 l 1.33,-5.71 c 0.13,-0.58 -0.03,-1.19 -0.45,-1.61 -0.41,-0.42 -1.01,-0.59 -1.58,-0.46 l -5.62,1.35 C 98.27,28.94 97.9,28.63 97.52,28.32 l 0.2,-5.86 c 0.02,-0.59 -0.26,-1.16 -0.75,-1.49 -0.49,-0.33 -1.11,-0.38 -1.64,-0.14 l -5.25,2.43 c -0.42,-0.24 -0.85,-0.47 -1.28,-0.7 l -0.93,-5.78 c -0.09,-0.59 -0.48,-1.08 -1.02,-1.31 -0.54,-0.23 -1.16,-0.15 -1.63,0.19 l -4.68,3.42 c -0.46,-0.15 -0.92,-0.29 -1.39,-0.43 l -2.02,-5.48 c -0.2,-0.56 -0.68,-0.97 -1.25,-1.08 -0.57,-0.11 -1.17,0.08 -1.57,0.51 l -3.94,4.29 c -0.48,-0.05 -0.95,-0.1 -1.43,-0.14 L 65.9,11.76 c -0.31,-0.5 -0.85,-0.81 -1.44,-0.81 -0.59,0 -1.13,0.31 -1.44,0.81 l -3.04,4.99 c -0.48,0.04 -0.96,0.09 -1.43,0.14 L 54.61,12.6 c -0.4,-0.43 -0.99,-0.63 -1.57,-0.51 -0.58,0.12 -1.05,0.53 -1.25,1.08 l -2.02,5.48 c -0.47,0.14 -0.93,0.28 -1.39,0.43 L 43.7,15.66 c -0.48,-0.35 -1.09,-0.42 -1.64,-0.19 -0.54,0.23 -0.93,0.72 -1.02,1.31 L 40.1,22.6 c -0.43,0.23 -0.85,0.46 -1.28,0.7 l -5.25,-2.43 c -0.53,-0.25 -1.15,-0.2 -1.64,0.14 -0.49,0.33 -0.77,0.89 -0.75,1.49 l 0.2,5.86 c -0.37,0.3 -0.74,0.61 -1.11,0.93 l -5.62,-1.35 c -0.57,-0.14 -1.17,0.04 -1.58,0.46 -0.42,0.42 -0.58,1.03 -0.45,1.61 l 1.32,5.71 c -0.31,0.37 -0.61,0.74 -0.91,1.12 l -5.78,-0.2 c -0.58,-0.02 -1.14,0.27 -1.46,0.76 -0.33,0.49 -0.38,1.12 -0.13,1.67 l 2.39,5.33 c -0.23,0.43 -0.46,0.86 -0.69,1.3 l -5.69,0.94 c -0.58,0.1 -1.07,0.49 -1.29,1.04 -0.22,0.55 -0.15,1.18 0.19,1.66 l 3.37,4.75 c -0.15,0.47 -0.29,0.94 -0.42,1.41 l -5.4,2.05 C 7.57,57.76 7.17,58.24 7.05,58.82 6.94,59.4 7.13,60 7.56,60.41 l 4.22,4 c -0.05,0.48 -0.1,0.97 -0.14,1.45 l -4.91,3.09 c -0.5,0.31 -0.8,0.86 -0.8,1.46 0,0.6 0.3,1.15 0.8,1.46 l 4.91,3.09 c 0.04,0.49 0.09,0.97 0.14,1.45 l -4.22,4 C 7.13,80.82 6.94,81.42 7.05,82 c 0.11,0.58 0.52,1.06 1.07,1.27 l 5.4,2.05 c 0.13,0.47 0.28,0.95 0.42,1.41 l -3.37,4.75 c -0.34,0.48 -0.41,1.11 -0.19,1.66 0.22,0.55 0.71,0.94 1.29,1.04 l 5.69,0.94 c 0.22,0.44 0.45,0.87 0.69,1.3 l -2.39,5.32 c -0.24,0.54 -0.19,1.17 0.13,1.67 0.33,0.5 0.88,0.79 1.46,0.76 l 5.77,-0.21 c 0.3,0.38 0.6,0.75 0.91,1.13 l -1.32,5.71 c -0.13,0.58 0.03,1.18 0.45,1.6 0.41,0.42 1.01,0.59 1.58,0.46 l 5.62,-1.34 c 0.37,0.32 0.74,0.62 1.11,0.92 l -0.2,5.86 c -0.02,0.59 0.26,1.16 0.75,1.49 0.49,0.33 1.11,0.38 1.64,0.13 l 5.25,-2.43 c 0.42,0.24 0.85,0.47 1.28,0.7 l 0.93,5.77 c 0.09,0.59 0.48,1.08 1.02,1.31 0.54,0.23 1.16,0.15 1.64,-0.19 l 4.68,-3.42 c 0.46,0.15 0.93,0.29 1.39,0.43 l 2.02,5.48 c 0.2,0.56 0.68,0.97 1.25,1.08 0.57,0.12 1.17,-0.08 1.57,-0.51 l 3.94,-4.29 c 0.48,0.06 0.95,0.1 1.43,0.15 l 3.04,4.99 c 0.31,0.5 0.85,0.81 1.44,0.81 0.59,0 1.13,-0.31 1.44,-0.81 L 68.92,124 c 0.48,-0.04 0.96,-0.09 1.43,-0.15 l 3.94,4.29 c 0.4,0.44 0.99,0.63 1.57,0.51 0.58,-0.11 1.05,-0.53 1.25,-1.08 l 2.02,-5.48 c 0.47,-0.14 0.93,-0.28 1.39,-0.43 l 4.68,3.42 c 0.48,0.35 1.09,0.42 1.63,0.19 0.54,-0.23 0.93,-0.72 1.02,-1.31 l 0.93,-5.77 c 0.43,-0.23 0.85,-0.46 1.28,-0.7 l 5.25,2.43 c 0.53,0.25 1.15,0.2 1.64,-0.13 0.49,-0.33 0.77,-0.89 0.75,-1.49 l -0.2,-5.86 c 0.37,-0.3 0.74,-0.61 1.11,-0.92 l 5.62,1.34 c 0.57,0.14 1.17,-0.03 1.58,-0.46 0.42,-0.42 0.58,-1.03 0.45,-1.6 l -1.32,-5.71 c 0.31,-0.37 0.61,-0.74 0.91,-1.13 l 5.78,0.21 c 0.58,0.02 1.14,-0.27 1.46,-0.76 0.33,-0.49 0.38,-1.12 0.13,-1.67 l -2.39,-5.32 c 0.23,-0.43 0.46,-0.86 0.68,-1.3 l 5.69,-0.94 c 0.58,-0.09 1.07,-0.49 1.29,-1.04 0.22,-0.55 0.15,-1.18 -0.19,-1.66 l -3.37,-4.75 c 0.15,-0.47 0.29,-0.94 0.42,-1.41 l 5.4,-2.05 c 0.55,-0.21 0.95,-0.69 1.07,-1.27 0.12,-0.58 -0.08,-1.18 -0.51,-1.59 l -4.22,-4 c 0.05,-0.48 0.1,-0.97 0.14,-1.45 l 4.91,-3.09 c 0.5,-0.31 0.8,-0.86 0.8,-1.46 0.01,-0.63 -0.29,-1.19 -0.79,-1.5 z m -32.88,41.36 c -1.88,-0.41 -3.07,-2.29 -2.67,-4.2 0.4,-1.91 2.25,-3.12 4.12,-2.71 1.88,0.41 3.07,2.29 2.67,4.19 -0.4,1.91 -2.25,3.13 -4.12,2.72 z M 87.6,98.81 c -1.71,-0.37 -3.4,0.73 -3.76,2.47 l -1.74,8.26 c -5.38,2.48 -11.36,3.86 -17.65,3.86 -6.44,0 -12.55,-1.45 -18.02,-4.03 l -1.74,-8.26 c -0.37,-1.74 -2.05,-2.85 -3.76,-2.47 l -7.19,1.57 c -1.33,-1.39 -2.57,-2.88 -3.72,-4.44 h 34.96 c 0.4,0 0.66,-0.07 0.66,-0.44 V 82.77 c 0,-0.37 -0.26,-0.44 -0.66,-0.44 H 54.75 v -7.96 h 11.06 c 1.01,0 5.4,0.29 6.8,5.99 0.44,1.75 1.4,7.45 2.06,9.27 0.66,2.04 3.33,6.13 6.19,6.13 h 17.42 c 0.2,0 0.41,-0.02 0.63,-0.06 -1.21,1.67 -2.53,3.24 -3.96,4.72 z M 39.24,110.1 c -1.88,0.41 -3.72,-0.8 -4.13,-2.71 -0.4,-1.91 0.79,-3.79 2.67,-4.2 1.88,-0.41 3.72,0.81 4.13,2.71 0.4,1.91 -0.79,3.79 -2.67,4.2 z M 25.98,55.52 c 0.78,1.78 -0.01,3.87 -1.77,4.66 -1.75,0.79 -3.81,-0.01 -4.58,-1.8 -0.77,-1.79 0.01,-3.87 1.77,-4.66 1.75,-0.79 3.8,0.01 4.58,1.8 z m -4.08,9.8 7.49,-3.38 c 1.6,-0.72 2.32,-2.62 1.61,-4.25 l -1.54,-3.54 h 6.06 V 81.9 H 23.29 c -1.06,-3.79 -1.63,-7.78 -1.63,-11.91 0,-1.58 0.08,-3.14 0.24,-4.67 z m 32.85,-2.69 v -8.18 h 14.44 c 0.75,0 5.27,0.87 5.27,4.3 0,2.85 -3.47,3.87 -6.32,3.87 z m 52.47,7.36 c 0,1.08 -0.04,2.16 -0.12,3.22 h -4.39 c -0.44,0 -0.62,0.29 -0.62,0.73 v 2.05 c 0,4.82 -2.68,5.86 -5.02,6.13 -2.23,0.26 -4.71,-0.95 -5.01,-2.34 -1.32,-7.52 -3.51,-9.12 -6.98,-11.9 4.3,-2.77 8.78,-6.86 8.78,-12.33 0,-5.91 -3.99,-9.63 -6.71,-11.46 -3.82,-2.55 -8.05,-3.07 -9.19,-3.07 H 32.57 C 38.73,34.05 47.07,29.11 56.5,27.31 l 5.35,5.7 c 1.21,1.29 3.21,1.33 4.48,0.1 l 5.99,-5.81 c 12.55,2.37 23.17,10.3 29.29,21.17 l -4.1,9.39 c -0.71,1.63 0.01,3.53 1.61,4.25 l 7.89,3.56 c 0.14,1.43 0.21,2.86 0.21,4.32 z M 61.86,22.47 c 1.39,-1.35 3.59,-1.29 4.91,0.11 1.32,1.41 1.27,3.65 -0.12,4.99 -1.39,1.35 -3.59,1.3 -4.91,-0.12 -1.32,-1.4 -1.27,-3.63 0.12,-4.98 z m 40.67,33.22 c 0.78,-1.78 2.83,-2.59 4.58,-1.8 1.75,0.79 2.55,2.88 1.77,4.66 -0.78,1.78 -2.83,2.59 -4.58,1.8 -1.75,-0.79 -2.55,-2.88 -1.77,-4.66 z" />
</g>
<path
   d="M 118.2941,52.822375 V 28.7755 h 12.65625 v 3.9375 q 0,3.199219 -0.0352,8.050781 -0.0352,4.816407 -0.0352,6.433594 0,4.746094 0.24609,6.855469 0.2461,2.074218 0.84375,3.023437 0.77344,1.230469 2.00391,1.898438 1.26562,0.667968 2.88281,0.667968 3.9375,0 6.1875,-3.023437 2.25,-3.023438 2.25,-8.402344 V 28.7755 h 12.58595 v 39.375 H 145.2941 v -5.695313 q -2.84766,3.445313 -6.04687,5.097657 -3.16407,1.617187 -6.9961,1.617187 -6.82031,0 -10.40625,-4.183594 -3.55078,-4.183593 -3.55078,-12.164062 z"
   style="font-style:normal;font-variant:normal;font-weight:bold;font-stretch:normal;font-size:72px;font-family:Arial-Black;-inkscape-font-specification:'Arial-Black Bold'"
   id="path1635" /><path
   d="m 200.73551,30.005969 v 9.5625 q -4.04297,-1.6875 -7.80469,-2.53125 -3.76172,-0.84375 -7.10156,-0.84375 -3.58594,0 -5.34375,0.914062 -1.72266,0.878907 -1.72266,2.742188 0,1.511719 1.30078,2.320312 1.33594,0.808594 4.7461,1.195313 l 2.21484,0.316406 q 9.66797,1.230469 13.00781,4.042969 3.33985,2.8125 3.33985,8.824218 0,6.292969 -4.64063,9.457032 -4.64062,3.164062 -13.85156,3.164062 -3.90235,0 -8.08594,-0.632812 -4.14844,-0.597657 -8.54297,-1.828125 v -9.5625 q 3.76172,1.828125 7.69922,2.742187 3.97266,0.914063 8.05078,0.914063 3.69141,0 5.55469,-1.019532 1.86328,-1.019531 1.86328,-3.023437 0,-1.6875 -1.30078,-2.496094 -1.26563,-0.84375 -5.09766,-1.300781 l -2.21484,-0.28125 q -8.40234,-1.054687 -11.77734,-3.902344 -3.375,-2.847656 -3.375,-8.648437 0,-6.257813 4.28906,-9.28125 4.28906,-3.023438 13.14844,-3.023438 3.48046,0 7.3125,0.527344 3.83203,0.527344 8.33203,1.652344 z"
   style="font-style:normal;font-variant:normal;font-weight:bold;font-stretch:normal;font-size:72px;font-family:Arial-Black;-inkscape-font-specification:'Arial-Black Bold'"
   id="path1637" /><path
   d="M 226.57535,17.595813 V 28.7755 h 12.97266 v 9 h -12.97266 v 16.699219 q 0,2.742187 1.08984,3.726562 1.08985,0.949219 4.32422,0.949219 h 6.46875 v 9 h -10.79297 q -7.45312,0 -10.58203,-3.09375 -3.09375,-3.128906 -3.09375,-10.582031 V 37.7755 h -6.25781 v -9 h 6.25781 V 17.595813 Z"
   style="font-style:normal;font-variant:normal;font-weight:bold;font-stretch:normal;font-size:72px;font-family:Arial-Black;-inkscape-font-specification:'Arial-Black Bold'"
   id="path1639" /><path
   d="m 242.07926,28.7755 h 12.58593 l 10.58203,26.71875 9,-26.71875 h 12.58594 l -16.55859,43.101562 q -2.4961,6.574219 -5.83594,9.175782 -3.30469,2.636719 -8.75391,2.636719 h -7.27734 v -8.261719 h 3.9375 q 3.19922,0 4.64063,-1.019532 1.47656,-1.019531 2.28515,-3.65625 l 0.35156,-1.089843 z"
   style="font-style:normal;font-variant:normal;font-weight:bold;font-stretch:normal;font-size:72px;font-family:Arial-Black;-inkscape-font-specification:'Arial-Black Bold'"
   id="path1641" />
<path
   d="m 148.53367,87.732069 v 2.988282 h -24.52149 q 0.38086,3.691406 2.66602,5.537109 2.28516,1.845703 6.38672,1.845703 3.31055,0 6.76758,-0.966797 3.48632,-0.996094 7.14843,-2.988281 v 8.085935 q -3.7207,1.40625 -7.4414,2.10938 -3.72071,0.73242 -7.44141,0.73242 -8.90625,0 -13.85742,-4.51172 -4.92188,-4.541015 -4.92188,-12.714843 0,-8.027344 4.83399,-12.626953 4.86328,-4.59961 13.35937,-4.59961 7.73438,0 12.36329,4.658204 4.6582,4.658203 4.6582,12.451171 z m -10.78125,-3.486328 q 0,-2.988281 -1.75781,-4.804687 -1.72852,-1.845703 -4.54102,-1.845703 -3.04687,0 -4.95117,1.728515 -1.9043,1.699219 -2.37305,4.921875 z"
   style="font-style:normal;font-variant:normal;font-weight:bold;font-stretch:normal;font-size:60px;font-family:Arial-Black;-inkscape-font-specification:'Arial-Black Bold'"
   id="path1644" /><path
   d="m 169.00955,89.460585 q -3.28125,0 -4.95117,1.113281 -1.64062,1.113281 -1.64062,3.28125 0,1.992188 1.31836,3.134766 1.34765,1.113281 3.7207,1.113281 2.95898,0 4.98047,-2.109375 2.02148,-2.138672 2.02148,-5.332031 v -1.201172 z m 16.02539,-3.955078 v 18.720703 h -10.57617 v -4.863281 q -2.10937,2.988281 -4.74609,4.365231 -2.63672,1.34766 -6.41602,1.34766 -5.09765,0 -8.29101,-2.95898 -3.16407,-2.988286 -3.16407,-7.73438 0,-5.771484 3.95508,-8.466797 3.98438,-2.695312 12.48047,-2.695312 h 6.18164 v -0.820313 q 0,-2.490234 -1.96289,-3.632812 -1.96289,-1.171875 -6.12305,-1.171875 -3.36914,0 -6.26953,0.673828 -2.90039,0.673828 -5.39062,2.021484 v -7.998047 q 3.36914,-0.820312 6.76758,-1.230468 3.39843,-0.439454 6.79687,-0.439454 8.87695,0 12.80274,3.515625 3.95507,3.486329 3.95507,11.367188 z"
   style="font-style:normal;font-variant:normal;font-weight:bold;font-stretch:normal;font-size:60px;font-family:Arial-Black;-inkscape-font-specification:'Arial-Black Bold'"
   id="path1646" /><path
   d="M 213.98683,75.92731 V 38.349185 l 9.33871,19.999837 1.20827,1.881448 v 43.70466 h -10.54698 v -4.746102 c -1.44531,1.933592 -3.03711,3.349622 -4.77539,4.248052 -1.73828,0.89844 -3.75,1.34766 -6.03516,1.34766 -4.04296,0 -7.36328,-1.60156 -9.96093,-4.804696 -2.59766,-3.222656 -3.89649,-7.363281 -3.89649,-12.421875 0,-5.058594 1.29883,-9.189453 3.89649,-12.392578 2.59765,-3.222657 5.91797,-4.833985 9.96093,-4.833985 2.26563,0 4.26758,0.458985 6.00586,1.376954 1.75781,0.898437 3.35938,2.304687 4.80469,4.21875 z m -6.91406,21.240234 c 2.24609,0 3.95508,-0.820313 5.12695,-2.460938 1.19141,-1.640625 1.78711,-4.023437 1.78711,-7.148437 0,-3.125 -0.5957,-5.507813 -1.78711,-7.148438 -1.17187,-1.640625 -2.88086,-2.460937 -5.12695,-2.460937 -2.22656,0 -3.93555,0.820312 -5.12695,2.460937 -1.17188,1.640625 -1.75782,4.023438 -1.75782,7.148438 0,3.125 0.58594,5.507812 1.75782,7.148437 1.1914,1.640625 2.90039,2.460938 5.12695,2.460938 z"
   style="font-style:normal;font-variant:normal;font-weight:bold;font-stretch:normal;font-size:60px;font-family:Arial-Black;-inkscape-font-specification:'Arial-Black Bold'"
   id="path1648"
   sodipodi:nodetypes="cccccccsscscsccscscscscs" />
</svg>
